<svg width="100%" height="100%" id="svg" viewBox="0 0 1440 600" xmlns="http://www.w3.org/2000/svg" class="transition duration-300 ease-in-out delay-150"><defs><linearGradient id="gradient" x1="98%" y1="35%" x2="2%" y2="65%"><stop offset="5%" stop-color="#86be8966"></stop><stop offset="95%" stop-color="#52985666"></stop></linearGradient></defs><path d="M 0,600 C 0,600 0,150 0,150 C 29.08193041539232,152.7190449422111 58.16386083078464,155.43808988442217 80,145 C 101.83613916921536,134.56191011557783 116.42648709225378,110.96668540452238 136,104 C 155.57351290774622,97.03331459547762 180.13019080020024,106.69516849748828 207,127 C 233.86980919979976,147.30483150251172 263.05274970694524,178.25264060552445 292,184 C 320.94725029305476,189.74735939447555 349.65881037201876,170.294269080414 370,168 C 390.34118962798124,165.705730919586 402.3120088049795,180.5702830728195 423,165 C 443.6879911950205,149.4297169271805 473.093154408063,103.42459862830798 497,108 C 520.906845591937,112.57540137169202 539.3153735627685,167.73132241394865 567,192 C 594.6846264372315,216.26867758605135 631.645351340863,209.65011171589745 659,187 C 686.354648659137,164.34988828410255 704.1032210737794,125.6682307224616 724,116 C 743.8967789262206,106.3317692775384 765.9417643640195,125.67696539425617 793,146 C 820.0582356359805,166.32303460574383 852.1297214701427,187.62390770051383 877,169 C 901.8702785298573,150.37609229948617 919.5393497554095,91.82740380368865 942,94 C 964.4606502445905,96.17259619631135 991.7128795082194,159.06647708473156 1016,181 C 1040.2871204917806,202.93352291526844 1061.6091322117131,183.90668785738504 1082,173 C 1102.3908677882869,162.09331214261496 1121.8505916449276,159.3067714857283 1150,151 C 1178.1494083550724,142.6932285142717 1214.988501208576,128.8662261997017 1237,144 C 1259.011498791424,159.1337738002983 1266.195403520768,203.2283237154649 1287,206 C 1307.804596479232,208.7716762845351 1342.229884708352,170.2204789384386 1370,154 C 1397.770115291648,137.7795210615614 1418.885057645824,143.8897605307807 1440,150 C 1440,150 1440,600 1440,600 Z" stroke="none" stroke-width="0" fill="url(#gradient)" class="transition-all duration-300 ease-in-out delay-150 path-0" transform="rotate(-180 720 300)"></path><defs><linearGradient id="gradient" x1="98%" y1="35%" x2="2%" y2="65%"><stop offset="5%" stop-color="#86be8988"></stop><stop offset="95%" stop-color="#52985688"></stop></linearGradient></defs><path d="M 0,600 C 0,600 0,300 0,300 C 20.458567046405143,330.2606954159901 40.91713409281029,360.5213908319802 69,351 C 97.08286590718971,341.4786091680198 132.79003067516402,292.1751320880692 154,282 C 175.20996932483598,271.8248679119308 181.92274320653362,300.7780808157431 205,314 C 228.07725679346638,327.2219191842569 267.5189964987014,324.7125446489584 291,326 C 314.4810035012986,327.2874553510416 322.0012707986608,332.3717405884233 347,336 C 371.9987292013392,339.6282594115767 414.47592030665544,341.80049299734856 444,321 C 473.52407969334456,300.19950700265144 490.09504797471755,256.4262874221825 506,259 C 521.9049520252825,261.5737125778175 537.1438877944745,310.4943573139215 564,311 C 590.8561122055255,311.5056426860785 629.3294008473844,263.5962833221316 653,265 C 676.6705991526156,266.4037166778684 685.5385088159877,317.12050939755215 710,322 C 734.4614911840123,326.87949060244785 774.5165638886647,285.9216790876598 805,270 C 835.4834361113353,254.0783209123402 856.3952356293538,263.1927742518085 873,265 C 889.6047643706462,266.8072257481915 901.9024935939201,261.3072239051061 922,279 C 942.0975064060799,296.6927760948939 969.9947899949652,337.57833012776706 998,355 C 1026.0052100050348,372.42166987223294 1054.1183464262194,366.3794555838256 1079,353 C 1103.8816535737806,339.6205444161744 1125.5318243001566,318.90384753693064 1151,299 C 1176.4681756998434,279.09615246306936 1205.7543563731538,260.0051542684515 1233,267 C 1260.2456436268462,273.9948457315485 1285.4507502072277,307.07553538926305 1306,326 C 1326.5492497927723,344.92446461073695 1342.442642797935,349.6927041744962 1364,343 C 1385.557357202065,336.3072958255038 1412.7786786010324,318.1536479127519 1440,300 C 1440,300 1440,600 1440,600 Z" stroke="none" stroke-width="0" fill="url(#gradient)" class="transition-all duration-300 ease-in-out delay-150 path-1" transform="rotate(-180 720 300)"></path><defs><linearGradient id="gradient" x1="98%" y1="35%" x2="2%" y2="65%"><stop offset="5%" stop-color="#86be89ff"></stop><stop offset="95%" stop-color="#529856ff"></stop></linearGradient></defs><path d="M 0,600 C 0,600 0,450 0,450 C 30.344831848125068,447.8048864471481 60.689663696250136,445.6097728942962 84,455 C 107.31033630374986,464.3902271057038 123.58617706312452,485.3657948699633 144,473 C 164.41382293687548,460.6342051300367 188.96562805125183,414.9270476258508 212,407 C 235.03437194874817,399.0729523741492 256.55131073186817,428.92601462663373 281,453 C 305.44868926813183,477.07398537336627 332.82912902127555,495.368893867614 357,500 C 381.17087097872445,504.631106132386 402.1321731830296,495.59840990291025 429,485 C 455.8678268169704,474.40159009708975 488.6421782466058,462.23746652074476 514,459 C 539.3578217533942,455.76253347925524 557.2991138305473,461.4517240141108 576,444 C 594.7008861694527,426.5482759858892 614.1613664312051,385.9556374228119 641,401 C 667.8386335687949,416.0443625771881 702.0554204446324,486.7257262946416 725,495 C 747.9445795553676,503.2742737053584 759.6169517902653,449.1414573986214 784,437 C 808.3830482097347,424.8585426013786 845.4767723943067,454.7084441108726 876,456 C 906.5232276056933,457.2915558891274 930.4759586325081,430.0247661578881 949,417 C 967.5240413674919,403.9752338421119 980.6193930756608,405.19249125757494 1003,414 C 1025.3806069243392,422.80750874242506 1057.046469064849,439.20526881181183 1083,437 C 1108.953530935151,434.79473118818817 1129.1947306649438,413.9864334951775 1152,408 C 1174.8052693350562,402.0135665048225 1200.174608275376,410.84899720747813 1227,410 C 1253.825391724624,409.15100279252187 1282.106836233553,398.61757767490974 1303,419 C 1323.893163766447,439.38242232509026 1337.3980467904134,490.68069209288296 1359,501 C 1380.6019532095866,511.31930790711704 1410.3009766047933,480.6596539535585 1440,450 C 1440,450 1440,600 1440,600 Z" stroke="none" stroke-width="0" fill="url(#gradient)" class="transition-all duration-300 ease-in-out delay-150 path-2" transform="rotate(-180 720 300)"></path></svg>